<!--
  Kitten Kingdoms building sprite sheet
  Author: cocomelonc
  Copyright (c) 2026 cocomelonc (Zhassulan Zhussupov)
  SPDX-License-Identifier: MIT

  11 frames, 32x32 source pixels each. Runtime output is enlarged to 64x64
  with nearest-neighbour scaling. Frame order matches BuildingType ids.
-->
<svg xmlns="http://www.w3.org/2000/svg" width="352" height="32" viewBox="0 0 352 32"
     shape-rendering="crispEdges">
  <!-- Town Hall: civic roof, flag, columns and central door. -->
  <g transform="translate(0 0)">
    <rect x="3" y="26" width="26" height="3" fill="#574438"/>
    <rect x="5" y="14" width="22" height="13" fill="#574438"/>
    <rect x="7" y="15" width="18" height="10" fill="#f6e6bd"/>
    <path d="M3 14h26L24 8H8z" fill="#574438"/>
    <path d="M6 13h20l-3-3H9z" fill="#70a96b"/>
    <rect x="8" y="16" width="3" height="9" fill="#d29a5f"/>
    <rect x="21" y="16" width="3" height="9" fill="#d29a5f"/>
    <rect x="14" y="19" width="5" height="6" fill="#79533c"/>
    <rect x="15" y="4" width="2" height="6" fill="#574438"/>
    <rect x="17" y="4" width="6" height="4" fill="#e5b657"/>
    <rect x="12" y="15" width="8" height="2" fill="#fff4d6"/>
  </g>

  <!-- Fishing Dock: water, wooden pier, boat and fish. -->
  <g transform="translate(32 0)">
    <rect x="2" y="21" width="28" height="8" fill="#66bed1"/>
    <rect x="2" y="24" width="28" height="2" fill="#9edce2"/>
    <rect x="5" y="14" width="18" height="5" fill="#574438"/>
    <rect x="6" y="15" width="17" height="3" fill="#c8894f"/>
    <rect x="8" y="18" width="3" height="8" fill="#79533c"/>
    <rect x="19" y="18" width="3" height="8" fill="#79533c"/>
    <path d="M14 12h12l3 4-4 4H13z" fill="#574438"/>
    <path d="M16 13h9l2 3-3 2h-8z" fill="#e5b657"/>
    <rect x="3" y="7" width="2" height="8" fill="#574438"/>
    <path d="M5 8h5l-2 2 2 2H5z" fill="#7aaac9"/>
    <rect x="25" y="25" width="3" height="2" fill="#fff4d6"/>
    <rect x="28" y="24" width="2" height="4" fill="#fff4d6"/>
  </g>

  <!-- Lumber Camp: unmistakable stacked logs and a broad axe. -->
  <g transform="translate(64 0)">
    <rect x="4" y="20" width="23" height="7" fill="#574438"/>
    <rect x="5" y="21" width="18" height="5" fill="#a76d3f"/>
    <rect x="22" y="21" width="5" height="5" fill="#dca66b"/>
    <rect x="23" y="22" width="2" height="2" fill="#79533c"/>
    <rect x="7" y="14" width="21" height="7" fill="#574438"/>
    <rect x="8" y="15" width="15" height="5" fill="#bf7d45"/>
    <rect x="23" y="15" width="5" height="5" fill="#e2ad71"/>
    <rect x="24" y="16" width="2" height="2" fill="#79533c"/>
    <rect x="5" y="8" width="19" height="7" fill="#574438"/>
    <rect x="6" y="9" width="13" height="5" fill="#9e6339"/>
    <rect x="19" y="9" width="5" height="5" fill="#dca66b"/>
    <rect x="20" y="10" width="2" height="2" fill="#79533c"/>
    <path d="M3 4h8v5H8v4H5V9H3z" fill="#87939a"/>
    <rect x="8" y="7" width="3" height="13" fill="#6d4a35"/>
  </g>

  <!-- Quarry: split boulder and pickaxe. -->
  <g transform="translate(96 0)">
    <path d="M3 26l3-11 6-5 7 1 4 5 5 10z" fill="#574438"/>
    <path d="M6 25l2-9 5-4 5 1 3 5 4 7z" fill="#9ca3aa"/>
    <rect x="11" y="16" width="4" height="3" fill="#c4c9c8"/>
    <rect x="17" y="21" width="4" height="3" fill="#757d83"/>
    <path d="M7 6h14v3H7z" fill="#574438"/>
    <path d="M6 7h4v4H7zM19 7h5v4h-3z" fill="#8f9ba1"/>
    <path d="M14 8h3v14h-3z" fill="#a76d3f"/>
    <rect x="3" y="26" width="26" height="3" fill="#79533c"/>
  </g>

  <!-- Catnip Farm: fenced soil rows and bright leafy crop. -->
  <g transform="translate(128 0)">
    <path d="M4 12h24v16H4z" fill="#574438"/>
    <path d="M6 14h20v12H6z" fill="#a76d3f"/>
    <rect x="8" y="15" width="2" height="10" fill="#d29a5f"/>
    <rect x="15" y="15" width="2" height="10" fill="#d29a5f"/>
    <rect x="22" y="15" width="2" height="10" fill="#d29a5f"/>
    <rect x="3" y="11" width="3" height="18" fill="#f0d18c"/>
    <rect x="26" y="11" width="3" height="18" fill="#f0d18c"/>
    <rect x="2" y="14" width="28" height="2" fill="#f0d18c"/>
    <path d="M8 12l-3-4 4 1 2-5 2 5 4-2-2 5z" fill="#74b85e"/>
    <path d="M20 13l-3-4 4 1 2-5 2 5 4-2-2 5z" fill="#8acb68"/>
  </g>

  <!-- Weaver's Cottage: little workshop, yarn ball, spindle and thread. -->
  <g transform="translate(160 0)">
    <rect x="3" y="14" width="20" height="14" fill="#574438"/>
    <rect x="5" y="15" width="16" height="11" fill="#f1d69c"/>
    <path d="M2 14h22L19 8H7z" fill="#574438"/>
    <path d="M5 13h16l-3-3H8z" fill="#70a96b"/>
    <rect x="8" y="18" width="5" height="8" fill="#a76d3f"/>
    <rect x="16" y="17" width="3" height="4" fill="#84bfd0"/>
    <rect x="24" y="8" width="2" height="15" fill="#79533c"/>
    <rect x="22" y="9" width="6" height="2" fill="#79533c"/>
    <rect x="22" y="20" width="7" height="2" fill="#79533c"/>
    <rect x="26" y="12" width="2" height="8" fill="#d887a3"/>
    <path d="M20 24h9v5h-9z" fill="#574438"/>
    <path d="M21 25h7v3h-7z" fill="#d887a3"/>
    <rect x="23" y="24" width="2" height="5" fill="#f1aec0"/>
  </g>

  <!-- Kitten Cottage: warm home with cat-ear roof and paw door. -->
  <g transform="translate(192 0)">
    <path d="M4 13l3-8 5 5h8l5-5 3 8v15H4z" fill="#574438"/>
    <path d="M6 14l2-6 4 4h9l3-4 2 6v12H6z" fill="#efcf91"/>
    <rect x="12" y="18" width="8" height="8" fill="#a76d3f"/>
    <rect x="14" y="20" width="2" height="2" fill="#f6e6bd"/>
    <rect x="9" y="15" width="4" height="4" fill="#84bfd0"/>
    <rect x="21" y="15" width="3" height="4" fill="#84bfd0"/>
    <rect x="3" y="27" width="26" height="2" fill="#79533c"/>
  </g>

  <!-- Storage Barn: red barn, loft door, crate and grain. -->
  <g transform="translate(224 0)">
    <path d="M3 14l6-7h14l6 7v14H3z" fill="#574438"/>
    <path d="M6 14l5-5h10l5 5v12H6z" fill="#c66e56"/>
    <rect x="11" y="17" width="10" height="9" fill="#8e513d"/>
    <path d="M11 17l10 9M21 17l-10 9" stroke="#efcf91" stroke-width="2"/>
    <rect x="13" y="11" width="6" height="4" fill="#f6e6bd"/>
    <rect x="2" y="26" width="28" height="3" fill="#79533c"/>
    <rect x="23" y="21" width="7" height="7" fill="#d29a5f"/>
    <path d="M23 21l7 7M30 21l-7 7" stroke="#79533c" stroke-width="1"/>
  </g>

  <!-- Scholar's Den: blue study, open book and star lamp. -->
  <g transform="translate(256 0)">
    <rect x="3" y="13" width="22" height="15" fill="#574438"/>
    <rect x="5" y="15" width="18" height="11" fill="#e8d5ae"/>
    <path d="M2 13h24L20 7H8z" fill="#574438"/>
    <path d="M5 12h18l-4-3H9z" fill="#6e9fc1"/>
    <rect x="7" y="17" width="5" height="5" fill="#9edce2"/>
    <rect x="16" y="18" width="5" height="8" fill="#8d6141"/>
    <path d="M7 25h9l3 3H10z" fill="#574438"/>
    <path d="M8 24h7l2 2h-7z" fill="#fff4d6"/>
    <path d="M27 6l1 3 3 1-3 1-1 3-1-3-3-1 3-1z" fill="#e5b657"/>
  </g>

  <!-- Cozy Plaza: cobbles, bench, flowers and lamp. -->
  <g transform="translate(288 0)">
    <path d="M3 21l6-8h14l6 8-5 8H8z" fill="#a9a6a0"/>
    <path d="M6 21l5-5h10l5 5-4 5H10z" fill="#d8cfb7"/>
    <rect x="8" y="18" width="15" height="4" fill="#574438"/>
    <rect x="9" y="19" width="13" height="2" fill="#b97945"/>
    <rect x="10" y="22" width="2" height="5" fill="#79533c"/>
    <rect x="20" y="22" width="2" height="5" fill="#79533c"/>
    <rect x="25" y="5" width="2" height="15" fill="#574438"/>
    <rect x="23" y="5" width="6" height="6" fill="#574438"/>
    <rect x="24" y="6" width="4" height="4" fill="#f5cf67"/>
    <rect x="3" y="16" width="4" height="4" fill="#d887a3"/>
    <rect x="4" y="14" width="2" height="8" fill="#70a96b"/>
  </g>

  <!-- Crystal Mine: cave entrance, rails, purple crystals and pick. -->
  <g transform="translate(320 0)">
    <path d="M2 28l2-12 7-8h10l7 8 2 12z" fill="#574438"/>
    <path d="M6 27l1-10 6-6h6l6 6 1 10z" fill="#85858c"/>
    <path d="M10 27v-8l4-5h4l4 5v8z" fill="#353744"/>
    <path d="M13 25l2-9 3 4 2-7 3 12z" fill="#9a6ad8"/>
    <path d="M14 25l1-5 2 2 1-4 2 7z" fill="#c59af0"/>
    <rect x="7" y="27" width="20" height="2" fill="#a76d3f"/>
    <rect x="10" y="25" width="2" height="5" fill="#d29a5f"/>
    <rect x="22" y="25" width="2" height="5" fill="#d29a5f"/>
    <path d="M22 5h8v3h-8z" fill="#9ca3aa"/>
    <rect x="24" y="7" width="3" height="11" fill="#a76d3f"/>
  </g>
</svg>
